<svg width="26" height="26" viewBox="0 0 26 26" fill="none" xmlns="http://www.w3.org/2000/svg">
<g clip-path="url(#clip0_121_46484)" filter="url(#filter0_d_121_46484)">
<path d="M8.35869 17.634C8.13369 17.634 7.90869 17.5777 7.71181 17.4371C7.34619 17.184 7.14931 16.734 7.23369 16.284L7.99306 11.5027L4.70244 8.09961C4.39306 7.79024 4.28056 7.31211 4.42119 6.89024C4.56181 6.46836 4.89931 6.18711 5.32119 6.10274L9.90556 5.37149L11.9587 1.01211C12.1556 0.618359 12.5493 0.365234 12.9712 0.365234C13.4212 0.365234 13.7868 0.618359 13.9837 1.01211L16.0931 5.34336L20.6774 6.07461C21.0993 6.13086 21.4368 6.44024 21.5774 6.86211C21.7181 7.28399 21.6056 7.76211 21.2962 8.07149L17.9774 11.4746L18.7649 16.284C18.8493 16.734 18.6524 17.184 18.2868 17.4371C17.9493 17.6902 17.4993 17.7184 17.1056 17.5215L12.9993 15.2715L8.89306 17.5215C8.72431 17.6059 8.55556 17.634 8.35869 17.634ZM5.40556 7.42461L8.80869 10.9121C8.97744 11.0809 9.06181 11.334 9.00556 11.5871L8.21806 16.4527C8.18994 16.5652 8.27431 16.6215 8.30244 16.6496C8.35869 16.7059 8.41494 16.6777 8.44306 16.6496L12.6618 14.3434C12.8868 14.2309 13.1399 14.2309 13.3649 14.3434L17.5837 16.6215C17.6118 16.6215 17.6399 16.6496 17.7243 16.6215C17.7524 16.5934 17.8087 16.5371 17.8087 16.4246L17.0212 11.5309C16.9931 11.2777 17.0493 11.0527 17.2181 10.8559L20.5931 7.36836C20.6774 7.28399 20.6493 7.19961 20.6493 7.14336C20.6493 7.11524 20.5931 7.03086 20.5368 7.03086L15.8118 6.29961C15.5587 6.27149 15.3618 6.10274 15.2493 5.87774L13.1399 1.43398C13.1118 1.34961 13.0556 1.34961 12.9993 1.34961C12.9712 1.34961 12.9149 1.37773 12.8587 1.43398L10.7493 5.90586C10.6368 6.13086 10.4399 6.29961 10.1868 6.32774L5.48994 7.08711C5.40556 7.08711 5.37744 7.17149 5.37744 7.19961C5.34931 7.22774 5.32119 7.34024 5.40556 7.42461Z" fill="#3056D3"/>
</g>
<defs>
<filter id="filter0_d_121_46484" x="0" y="0" width="26" height="26" filterUnits="userSpaceOnUse" color-interpolation-filters="sRGB">
<feFlood flood-opacity="0" result="BackgroundImageFix"/>
<feColorMatrix in="SourceAlpha" type="matrix" values="0 0 0 0 0 0 0 0 0 0 0 0 0 0 0 0 0 0 127 0" result="hardAlpha"/>
<feOffset dy="4"/>
<feGaussianBlur stdDeviation="2"/>
<feComposite in2="hardAlpha" operator="out"/>
<feColorMatrix type="matrix" values="0 0 0 0 0 0 0 0 0 0 0 0 0 0 0 0 0 0 0.25 0"/>
<feBlend mode="normal" in2="BackgroundImageFix" result="effect1_dropShadow_121_46484"/>
<feBlend mode="normal" in="SourceGraphic" in2="effect1_dropShadow_121_46484" result="shape"/>
</filter>
<clipPath id="clip0_121_46484">
<rect width="18" height="18" fill="white" transform="translate(4)"/>
</clipPath>
</defs>
</svg>
