<svg width="132" height="25" viewBox="0 0 132 25" fill="none" xmlns="http://www.w3.org/2000/svg">
<path d="M5.32131 7.53672C6.82635 7.53672 8.0432 6.41595 8.0432 5.00697C8.0432 3.59799 6.82635 2.44519 5.32131 2.44519C3.84829 2.44519 2.63144 3.59799 2.63144 5.00697C2.63144 6.41595 3.84829 7.53672 5.32131 7.53672ZM7.53084 20.6658V8.97772L0.934265 11.0271V11.3153C2.5674 11.3153 3.23987 11.7957 3.23987 13.3968V20.7299C3.23987 22.299 2.63144 23.2917 0.99831 23.2917V23.7079H9.74038V23.2917C8.13927 23.2917 7.53084 22.299 7.53084 20.6658Z" fill="#161616"/>
<path d="M25.023 20.6338V0.972168L18.3944 3.02159V3.30979C20.0275 3.30979 20.7 3.82215 20.7 5.42326V10.4187C20.4118 9.84232 19.5792 8.9457 18.0421 8.9457C14.8079 8.9457 11.2214 12.0519 11.2214 17.3675C11.2214 20.9861 13.4309 23.9961 16.6972 23.9961C18.6826 23.9961 20.1876 22.5872 20.7 21.5625V21.6585L20.8281 23.6759H27.2325V23.2596C25.5994 23.2596 25.023 22.2669 25.023 20.6338ZM18.7786 22.0748C16.8253 22.0748 15.6084 19.3209 15.6084 15.6383C15.6084 12.8204 16.7612 9.71424 18.5225 9.71424C19.6753 9.71424 20.7 11.3153 20.7 13.1726V20.2495C20.5719 20.7939 20.0595 22.0748 18.7786 22.0748Z" fill="#161616"/>
<path d="M50.5437 11.4114C50.5437 11.4114 43.3067 7.95301 43.1786 7.88897C42.0258 7.34459 40.6168 6.41595 40.6168 4.52663C40.6168 3.11766 41.6735 2.06092 43.5308 2.06092C45.3561 2.06092 46.5729 3.02159 47.6937 4.23843C48.5583 5.1991 49.3909 6.19179 50.3195 7.05639C50.8959 7.63279 51.7605 8.17717 52.7853 8.3693H52.9133C52.2729 6.19179 51.5364 3.4699 51.7926 1.26037H51.5684C50.6718 1.70868 50.2875 2.0289 49.0387 2.0289C47.2774 2.0289 45.7404 1.26037 43.5629 1.26037C40.4887 1.26037 37.7668 3.88619 37.7668 7.12044C37.7668 10.1946 40.2325 12.0519 41.8016 12.7884C41.9617 12.8524 47.8218 15.6704 48.174 15.8305C48.9106 16.1827 51.3442 17.1434 51.3442 19.6411C51.3442 21.9147 49.519 23.1315 47.5656 23.1315C44.0432 23.1315 43.1466 15.9906 36.3578 15.9906C37.5107 18.3923 37.6387 21.2743 37.3826 24.0282H37.7028C38.5354 23.1956 39.528 22.6832 40.5528 22.6832C42.4421 22.6832 44.6196 24.0282 47.5016 24.0282C51.024 24.0282 54.2903 21.3063 54.2903 17.5917C54.2903 14.8378 52.3049 12.244 50.5437 11.4114Z" fill="#161616"/>
<path d="M66.0269 20.9861C65.8348 21.4664 65.4505 22.395 64.3618 22.395C63.4652 22.395 62.7607 21.7866 62.7607 20.5057V9.87435H65.7387V9.26592H62.7607V3.85417H62.3124C61.5118 6.03168 59.1101 9.13784 56.004 9.26592V9.87435H58.4697V20.5057C58.4697 22.5872 59.6225 23.9961 62.3764 23.9961C64.4899 23.9961 65.9949 22.5551 66.5073 20.9861H66.0269Z" fill="#161616"/>
<path d="M83.8798 20.7619V8.97772L77.2832 10.9951V11.3153C78.9164 11.3153 79.5889 11.7957 79.5889 13.3968L79.5568 21.0821L79.2046 21.2743C78.5641 21.6265 77.6675 22.299 76.6428 22.299C75.2979 22.299 74.8496 21.3383 74.8496 19.8653V8.97772L68.253 10.9951V11.3153C69.8861 11.3153 70.5586 11.7957 70.5586 13.3968V20.954C70.5586 22.6192 71.6153 23.9961 73.6647 23.9961C75.426 23.9961 77.0271 23.1956 79.5568 21.8186V23.6759H85.8972V23.2596C84.2641 23.2596 83.8798 22.395 83.8798 20.7619Z" fill="#161616"/>
<path d="M101.664 20.6338V0.972168L95.0351 3.02159V3.30979C96.6682 3.30979 97.3407 3.82215 97.3407 5.42326V10.4187C97.0525 9.84232 96.2199 8.9457 94.6828 8.9457C91.4486 8.9457 87.8621 12.0519 87.8621 17.3675C87.8621 20.9861 90.0716 23.9961 93.3379 23.9961C95.3233 23.9961 96.8283 22.5872 97.3407 21.5625V21.6585L97.4688 23.6759H103.873V23.2596C102.24 23.2596 101.664 22.2669 101.664 20.6338ZM95.4193 22.0748C93.466 22.0748 92.2491 19.3209 92.2491 15.6383C92.2491 12.8204 93.4019 9.71424 95.1632 9.71424C96.316 9.71424 97.3407 11.3153 97.3407 13.1726V20.2495C97.2126 20.7939 96.7002 22.0748 95.4193 22.0748Z" fill="#161616"/>
<path d="M110.113 7.53672C111.618 7.53672 112.835 6.41595 112.835 5.00697C112.835 3.59799 111.618 2.44519 110.113 2.44519C108.64 2.44519 107.423 3.59799 107.423 5.00697C107.423 6.41595 108.64 7.53672 110.113 7.53672ZM112.322 20.6658V8.97772L105.726 11.0271V11.3153C107.359 11.3153 108.031 11.7957 108.031 13.3968V20.7299C108.031 22.299 107.423 23.2917 105.79 23.2917V23.7079H114.532V23.2917C112.931 23.2917 112.322 22.299 112.322 20.6658Z" fill="#161616"/>
<path d="M123.948 8.9457C119.882 8.9457 116.199 11.7957 116.199 16.4709C116.199 21.1782 119.882 23.9961 123.948 23.9961C128.047 23.9961 131.73 21.1782 131.73 16.4709C131.73 11.7957 128.047 8.9457 123.948 8.9457ZM123.948 23.2596C121.931 23.2596 120.81 20.6018 120.81 16.4709C120.81 12.276 121.931 9.68221 123.948 9.68221C125.966 9.68221 127.087 12.276 127.087 16.4709C127.087 20.6658 125.966 23.2596 123.948 23.2596Z" fill="#161616"/>
<path d="M8.35785 4.86816C8.35785 6.52502 7.0147 7.86816 5.35785 7.86816C3.70099 7.86816 2.35785 6.52502 2.35785 4.86816C2.35785 3.21131 3.70099 1.86816 5.35785 1.86816C7.0147 1.86816 8.35785 3.21131 8.35785 4.86816Z" fill="#D3A265"/>
</svg>
