<svg width="76" height="75" viewBox="0 0 76 75" fill="none" xmlns="http://www.w3.org/2000/svg">
<path d="M4.20096 3.77066C0.830962 7.14066 0.830962 12.6107 4.20096 15.9807L54.271 66.0507L66.481 53.8407L16.411 3.77066C13.041 0.400664 7.57096 0.400664 4.20096 3.77066Z" fill="#F5C58A"/>
<path d="M10.631 22.4206L4.19101 15.9806C0.83101 12.5906 0.85101 7.13062 4.24101 3.77062C7.61101 0.430625 13.041 0.430625 16.411 3.77062L22.851 10.2106L10.631 22.4206Z" fill="#F5C58A"/>
<path d="M22.846 10.2132L10.6344 22.4248L15.4922 27.2826L27.7038 15.071L22.846 10.2132Z" fill="white"/>
<path d="M54.2709 66.0506C54.2709 66.0506 29.9709 33.2006 60.3809 59.9406C60.3809 59.9406 21.6709 16.9506 66.4909 53.8306L74.4309 73.9806L54.2709 66.0506Z" fill="white"/>
<path d="M66.2111 70.7605C67.0711 68.4605 68.8811 66.6505 71.1811 65.7905L74.4111 74.0005L66.2111 70.7605Z" fill="#F5C58A"/>
<path d="M33.071 21.8508C33.461 22.2408 34.101 22.2408 34.491 21.8508C34.881 21.4608 34.881 20.8208 34.491 20.4308L33.991 19.9308C33.581 19.5508 32.941 19.5808 32.571 19.9908C32.221 20.3708 32.221 20.9608 32.571 21.3508L33.071 21.8508Z" fill="#333231"/>
<path d="M46.0709 50.5008C46.9609 50.7208 50.0109 52.1808 59.7009 60.7008C60.1209 61.0708 60.7509 61.0208 61.1209 60.6108C61.4609 60.2308 61.4509 59.6508 61.1109 59.2808C61.0509 59.2108 55.0209 52.5208 50.5509 46.7608C50.2109 46.3208 49.5809 46.2308 49.1409 46.5708C48.7009 46.9108 48.6109 47.5408 48.9509 47.9808C48.9609 47.9908 48.9609 47.9908 48.9709 48.0008C49.9209 49.2208 50.9309 50.4808 51.9509 51.7008C46.7609 47.8708 45.4309 48.1408 44.6109 48.8908C43.5909 49.8208 43.7109 51.7508 47.4609 57.8308L12.0509 22.4308L22.8509 11.6308L26.2809 15.0708L17.3609 23.9908C16.9709 24.3808 16.9709 25.0208 17.3609 25.4108C17.7509 25.8008 18.3909 25.8008 18.7809 25.4108L27.7009 16.4908L29.6409 18.4308C30.0309 18.8208 30.6709 18.8208 31.0609 18.4308C31.4509 18.0408 31.4509 17.4008 31.0609 17.0108L23.5509 9.5008L17.1109 3.0608C13.3809 -0.739197 7.28087 -0.809197 3.47087 2.9208C-0.339127 6.6508 -0.399127 12.7508 3.33087 16.5608C3.38087 16.6108 3.42087 16.6508 3.47087 16.7008C3.86087 17.1008 4.49087 17.1108 4.89087 16.7208C5.29087 16.3308 5.30087 15.7008 4.91087 15.3008C4.90087 15.2908 4.89087 15.2808 4.89087 15.2808C1.91087 12.3008 1.91087 7.4708 4.89087 4.4908C7.87087 1.5108 12.7009 1.5108 15.6809 4.4908L21.4109 10.2208L10.6309 21.0008L7.53087 17.9008C7.14087 17.5108 6.50087 17.5108 6.11087 17.9008C5.72087 18.2908 5.72087 18.9308 6.11087 19.3208L9.92087 23.1308L53.1409 66.3508C53.2009 66.4008 53.2609 66.4408 53.3209 66.4708L53.4509 66.6508C53.7909 67.0908 54.4209 67.1808 54.8609 66.8408C55.2909 66.5108 55.3809 65.9008 55.0709 65.4608C50.7309 59.5808 46.2909 52.4708 46.0709 50.5008Z" fill="#333231"/>
<path d="M75.3508 73.6211L67.4108 53.4711C67.4108 53.4611 67.4008 53.4611 67.4008 53.4511C67.3508 53.3511 67.2908 53.2511 67.2108 53.1711C67.2008 53.1611 67.2008 53.1411 67.1908 53.1311L37.1408 23.0811C36.7508 22.6911 36.1108 22.6911 35.7208 23.0811C35.3308 23.4711 35.3308 24.1111 35.7208 24.5011L53.8608 42.6411C45.8608 36.8311 44.9808 37.6411 44.3008 38.2911C43.3708 39.1711 43.5608 40.6611 47.2408 45.6911C47.5708 46.1411 48.2008 46.2411 48.6508 45.9111C49.1008 45.5811 49.2008 44.9511 48.8708 44.5011C47.7908 43.1211 46.8508 41.6411 46.0608 40.0711C47.6108 40.6911 52.2108 43.4011 65.6508 54.4511L69.9008 65.2511C68.0808 66.1711 66.6008 67.6411 65.6908 69.4611L58.1608 66.4911C57.6408 66.2811 57.0608 66.5311 56.8508 67.0411C56.6408 67.5611 56.8908 68.1411 57.4008 68.3511C57.4108 68.3511 57.4108 68.3611 57.4208 68.3611L74.0508 74.9311C74.5708 75.1311 75.1508 74.8811 75.3608 74.3611C75.4508 74.1211 75.4508 73.8611 75.3508 73.6211ZM67.5708 70.2111C68.2608 68.9011 69.3308 67.8311 70.6408 67.1411L72.6308 72.2011L67.5708 70.2111Z" fill="#333231"/>
</svg>
